Coordinates
version=1
nRows=15
nColumns=42
inDegrees=yes

Units are S.I. units (second, meters, Newtons, ...)
If the header above contains a line with 'inDegrees', this indicates whether rotational values are in degrees (yes) or radians (no).

endheader
time	pelvis_tilt	pelvis_list	pelvis_rotation	pelvis_tx	pelvis_ty	pelvis_tz	hip_flexion_r	hip_adduction_r	hip_rotation_r	knee_angle_r	knee_adduction_r	knee_angle_r_beta	ankle_angle_r	subtalar_angle_r	mtp_angle_r	hip_flexion_l	hip_adduction_l	hip_rotation_l	knee_angle_l	knee_adduction_l	knee_angle_l_beta	ankle_angle_l	subtalar_angle_l	mtp_angle_l	lumbar_extension	lumbar_bending	lumbar_rotation	arm_flex_r	arm_add_r	arm_rot_r	elbow_flex_r	pro_sup_r	wrist_flex_r	wrist_dev_r	arm_flex_l	arm_add_l	arm_rot_l	elbow_flex_l	pro_sup_l	wrist_flex_l	wrist_dev_l
      0.00000000	      8.92540531	      5.36431831	     -4.21576503	     -1.94098421	      0.96757160	      0.23918347	     -5.09266388	    -11.71148088	     -8.14029618	     61.66801179	     -2.45811074	      1.07630985	      5.16566628	     -9.25014422	     -9.34040431	      3.13578943	      4.88072986	    -12.77612040	     16.35063149	      2.11353272	      0.28537235	     11.89171671	     14.63426650	     -9.34040431	    -19.48125503	     -5.53537928	     -1.00236030	     -6.89744774	    -12.97826367	     13.18850726	     35.54326355	     90.00000001	      0.00000000	      0.00000000	     -8.70321555	    -12.30053560	     -0.05941300	     38.30328081	     90.00000001	      0.00000000	      0.00000000
      0.01000000	      8.90583003	      5.17233513	     -4.06300750	     -1.93491718	      0.96870113	      0.23848705	     -4.27107317	    -11.44112506	     -8.17809766	     61.81749748	     -2.44651395	      1.07891887	      5.60056186	     -9.16312159	     -9.32161795	      2.57389113	      4.80267174	    -12.79273391	     16.01571466	      2.02246625	      0.27952695	     12.00247684	     14.75536659	     -9.32161795	    -19.51341455	     -5.20144149	     -1.20800645	     -6.97647268	    -12.97406915	     13.20258701	     35.49011272	     90.00000001	      0.00000000	      0.00000000	     -8.33013715	    -12.41283845	     -0.04721132	     38.44629357	     90.00000001	      0.00000000	      0.00000000
      0.02000000	      8.83355808	      4.88577262	     -3.92298142	     -1.92677318	      0.97011802	      0.23787538	     -3.15598828	    -10.97451481	     -8.21135009	     61.85305816	     -2.51509168	      1.07953952	      6.46550206	     -8.98002044	     -9.29668026	      1.75160603	      4.63406298	    -12.53810437	     15.32622261	      2.03800878	      0.26749305	     12.24739698	     15.13376845	     -9.29668026	    -19.46432631	     -4.78151896	     -1.32423660	     -7.10356976	    -12.96011427	     13.21344637	     35.35504569	     90.00000001	      0.00000000	      0.00000000	     -7.79130883	    -12.62057737	      0.00020757	     38.61967862	     90.00000001	      0.00000000	      0.00000000
      0.03000000	      9.08905128	      4.56053240	     -3.66280321	     -1.91639482	      0.97222569	      0.23707418	     -2.33190301	    -10.49641748	     -8.63638326	     61.58022272	     -2.70421530	      1.07477764	      7.69749129	     -7.72915531	     -9.19995829	      0.23918216	      4.44831560	    -11.94039334	     14.29633252	      2.18902883	      0.24951807	     12.44858539	     15.28840369	     -9.19995829	    -19.75817948	     -4.28961157	     -1.57952533	     -7.32301478	    -12.88005944	     13.04258862	     35.28804047	     90.00000001	      0.00000000	      0.00000000	     -7.17078538	    -12.94575106	      0.26923308	     38.90751672	     90.00000001	      0.00000000	      0.00000000
      0.04000000	      8.92805090	      4.19477499	     -3.42080250	     -1.90488728	      0.97383302	      0.23611437	     -0.73754020	     -9.93729289	     -8.73814155	     61.38327489	     -2.64964701	      1.07134025	      8.69007138	     -7.39943591	     -9.16457201	     -0.80410069	      4.20643876	    -11.60258078	     13.41898895	      2.22964351	      0.23420554	     12.71707389	     15.62286105	     -9.16457201	    -19.63092661	     -3.71824861	     -1.81134157	     -7.54425296	    -12.83856648	     12.99913792	     35.16260576	     90.00000001	      0.00000000	      0.00000000	     -6.47293690	    -13.22174194	      0.29587451	     39.23652109	     90.00000001	      0.00000000	      0.00000000
      0.05000000	      8.73468128	      3.81685737	     -3.15668446	     -1.89210823	      0.97539808	      0.23503317	      0.96150285	     -9.34915165	     -8.86357383	     60.90487953	     -2.54174294	      1.06299068	      9.68590737	     -7.08647622	     -9.13879260	     -1.90544024	      3.98727530	    -11.41500002	     12.50438045	      2.15127436	      0.21824261	     12.95359736	     15.94516118	     -9.13879260	    -19.44556889	     -3.11721322	     -2.08298112	     -7.81050393	    -12.81005393	     12.92706331	     35.07761019	     90.00000001	      0.00000000	      0.00000000	     -5.76439296	    -13.52212467	      0.30327374	     39.68602887	     90.00000001	      0.00000000	      0.00000000
      0.06000000	      9.03936267	      3.37170265	     -2.82204137	     -1.87799992	      0.97758657	      0.23410187	      1.97037383	     -8.69524432	     -9.43776330	     59.85945211	     -2.61683795	      1.04474453	     11.03231133	     -5.72131881	     -9.04259605	     -3.95823204	      3.65643580	    -10.49690428	     10.97577248	      2.39082067	      0.19156337	     13.02060759	     15.82646368	     -9.04259605	    -19.77053998	     -2.46827434	     -2.37616271	     -8.16428970	    -12.67630847	     12.51469587	     35.05031873	     90.00000001	      0.00000000	      0.00000000	     -5.00454892	    -13.92600381	      0.44969973	     40.25516387	     90.00000001	      0.00000000	      0.00000000
      0.07000000	      8.68281483	      3.03097895	     -2.55206149	     -1.86403183	      0.97854171	      0.23309259	      3.91718757	     -8.14141439	     -9.47840974	     58.88722362	     -2.28961498	      1.02777594	     11.93408135	     -5.54243240	     -9.01474507	     -4.99847024	      3.41808037	    -10.24311165	      9.96879806	      2.38166885	      0.17398835	     13.28423726	     16.21959224	     -9.01474507	    -19.40589690	     -1.91594473	     -2.63944504	     -8.48308077	    -12.61440970	     12.45873714	     34.97707925	     90.00000001	      0.00000000	      0.00000000	     -4.26768050	    -14.26466664	      0.38401426	     40.84610660	     90.00000001	      0.00000000	      0.00000000
      0.08000000	      8.40188300	      2.69176681	     -2.28972528	     -1.84963731	      0.97931975	      0.23210651	      5.66737079	     -7.59189003	     -9.51784045	     57.51185834	     -1.88470345	      1.00377129	     12.80340257	     -5.35726612	     -8.98871777	     -6.19823581	      3.17948656	    -10.02942352	      8.85894285	      2.36702763	      0.15461772	     13.53970435	     16.68247648	     -8.98871777	    -19.10574281	     -1.37047578	     -2.91427911	     -8.82382124	    -12.55311976	     12.32365759	     34.93853129	     90.00000001	      0.00000000	      0.00000000	     -3.57609808	    -14.61199470	      0.29912536	     41.52033422	     90.00000001	      0.00000000	      0.00000000
      0.09000000	      8.73492217	      2.25193812	     -1.98434595	     -1.83456296	      0.98072557	      0.23131419	      6.39171988	     -6.94617307	     -9.67272298	     55.39975273	     -1.37322542	      0.96690809	     13.45180280	     -5.11738129	     -8.92510815	     -8.29649867	      2.76360346	     -9.53962782	      7.42901793	      2.56194269	      0.12966082	     13.65375594	     16.94638515	     -8.92510815	    -19.41259877	     -0.74821824	     -3.13117187	     -9.24993392	    -12.43817890	     11.90634548	     34.95190371	     90.00000001	      0.00000000	      0.00000000	     -2.84168639	    -14.95474764	      0.20039276	     42.27877742	     90.00000001	      0.00000000	      0.00000000
      0.10000000	      8.27278194	      2.30067644	     -1.74560536	     -1.82028796	      0.98042424	      0.23028627	      8.24870308	     -6.89603383	     -9.86712253	     53.52076638	     -1.00259902	      0.93411359	     13.73174495	     -5.08818651	     -8.91012684	     -9.01426003	      2.90408272	     -9.91631669	      6.87567349	      2.48629847	      0.12000314	     13.84406663	     17.02735382	     -8.91012684	    -18.88800805	     -0.63952323	     -3.50664142	     -9.61998312	    -12.34996682	     11.88506349	     34.99367574	     90.00000001	      0.00000000	      0.00000000	     -2.19401994	    -15.34458348	      0.10679145	     42.89493429	     90.00000001	      0.00000000	      0.00000000
      0.11000000	      8.45233088	      1.74656733	     -1.53569530	     -1.80545040	      0.98078837	      0.22990428	      8.95239842	     -6.01543774	     -9.64976382	     50.85039732	     -0.30906226	      0.88750686	     14.29480253	     -5.65008001	     -8.85195450	    -11.03989331	      2.34979677	     -9.40039069	      5.17993203	      2.61946956	      0.09040687	     14.07903237	     17.99807913	     -8.85195450	    -19.03476472	      0.04877532	     -3.65126169	     -9.96326034	    -12.23445092	     11.50860849	     35.00637300	     90.00000001	      0.00000000	      0.00000000	     -1.62404907	    -15.67531420	     -0.04729188	     43.88713459	     90.00000001	      0.00000000	      0.00000000
      0.12000000	      8.10544871	      1.67996616	     -1.36708342	     -1.79123198	      0.97986841	      0.22926819	     10.37894750	     -5.76874994	     -9.61830725	     48.28985031	      0.19388960	      0.84281688	     14.60301904	     -5.90122805	     -8.82164077	    -12.08231597	      2.30789836	     -9.41177604	      4.22034177	      2.69676421	      0.07365886	     14.40355515	     18.61378341	     -8.82164077	    -18.62877544	      0.24183681	     -3.91309416	    -10.28339785	    -12.12487153	     11.38766476	     35.00762611	     90.00000001	      0.00000000	      0.00000000	     -1.07297485	    -16.04147018	     -0.15435221	     44.73495164	     90.00000001	      0.00000000	      0.00000000
      0.13000000	      8.27192901	      1.44500653	     -1.17991318	     -1.77671254	      0.97935728	      0.22884370	     10.90683734	     -5.29175049	     -9.56254978	     45.09702478	      0.74513647	      0.78709157	     14.53788502	     -6.64187970	     -8.76999638	    -13.70379138	      2.06325502	     -9.71783897	      3.31042720	      2.76335406	      0.05777785	     14.74581589	     19.44392838	     -8.76999638	    -18.75786905	      0.58340059	     -4.08231455	    -10.62657946	    -12.03030003	     11.13677352	     35.06065460	     90.00000001	      0.00000000	      0.00000000	     -0.45454165	    -16.36983483	     -0.26620720	     45.57689167	     90.00000001	      0.00000000	      0.00000000
      0.14000000	      8.14931759	      1.35628241	     -1.06503233	     -1.76248722	      0.97797038	      0.22862608	     11.75059001	     -4.97526242	     -9.52418956	     41.82816100	      1.21277992	      0.73003913	     14.45962035	     -7.11720390	     -8.71877331	    -14.88711240	      1.93489096	    -10.10120535	      2.61221470	      2.88792041	      0.04559175	     15.24500666	     20.43413929	     -8.71877331	    -18.57452461	      0.74021984	     -4.27052252	    -10.92541085	    -11.89439334	     10.98166927	     35.09834036	     90.00000001	      0.00000000	      0.00000000	      0.08540955	    -16.75694394	     -0.34989479	     46.41779775	     90.00000001	      0.00000000	      0.00000000
